<?xml version="1.0" encoding="utf-8"?>
<!-- Generator: Adobe Illustrator 23.1.0, SVG Export Plug-In . SVG Version: 6.00 Build 0)  -->
<svg version="1.1" id="Layer_1" xmlns="http://www.w3.org/2000/svg" xmlns:xlink="http://www.w3.org/1999/xlink" x="0px" y="0px"
	 viewBox="0 0 234 315" style="enable-background:new 0 0 234 315;" xml:space="preserve">
<style type="text/css">
	.st0{fill:none;stroke:#333333;stroke-miterlimit:10;}
	.st1{stroke:#333333;stroke-width:0.63;}
	.st2{fill:none;stroke:#333333;stroke-width:1.0023;stroke-miterlimit:10;}
	.st3{fill:none;stroke:#333333;}
	.st4{fill:#333333;}
</style>
<path class="st0" d="M208.2,31.1c0,6.9-9.5,13.2-24.9,17.9c-17.4,5.3-42.4,8.6-70.3,8.6c-27.8,0-52.9-3.3-70.3-8.6
	c-3.5-1.1-6.7-2.2-9.6-3.4c0,0,0,0-0.1,0c-0.4-0.2-0.8-0.3-1.1-0.5c-0.2-0.1-0.4-0.2-0.6-0.3c-0.3-0.1-0.6-0.3-0.8-0.4
	c-0.2-0.1-0.5-0.2-0.7-0.3c0,0,0,0-0.1,0c-0.2-0.1-0.5-0.2-0.7-0.3c-0.3-0.1-0.5-0.3-0.7-0.4c-0.2-0.1-0.4-0.2-0.6-0.3l0,0
	c-0.2-0.1-0.4-0.2-0.6-0.3s-0.4-0.3-0.6-0.3c-0.1-0.1-0.3-0.2-0.4-0.3c-4.8-3-7.7-6.2-8.3-9.7c0-0.3-0.1-0.5-0.1-0.8v-0.5
	c0-14.7,42.6-26.5,95.2-26.5C165.6,4.5,208.2,16.4,208.2,31.1z"/>
<path class="st1" d="M208.4,66c0-0.3-0.1-0.5-0.1-0.7H208l0,0c0.2,0.1,0.3,0.1,0,0.2c0,0.1,0,0.5,0,0.6v1.7
	c-0.4,3.8-3.7,7.4-9.7,10.8c-16.2,9.1-48.9,14.7-85.2,14.7s-69.9-5.9-85.6-15c-6-3.4-9.1-7.1-9.4-10.9V32.9l0,0
	C18,32.8,18,32.7,18,32.5c0-0.1,0-0.1,0-0.2h-0.3v35.1c0.3,3.9,3.5,7.8,9.6,11.3c16.1,9.3,49,15,85.8,15c36.5,0,69.2-5.7,85.5-14.8
	c6.1-3.4,9.5-7.2,9.9-11.1L208.4,66z"/>
<path class="st0" d="M208.3,30.9V66"/>
<path class="st2" d="M207.5,93.8v172.7c0,1.3-0.1,2.5-0.4,3.7c-1.8,4.8-8.3,9.3-18.1,13c-2,0.7-4.1,1.5-6.3,2.1
	c-17.4,5.3-42.5,8.6-70.3,8.6s-52.9-3.3-70.3-8.6c-2.2-0.7-4.3-1.4-6.3-2.1c-11.3-4.2-18.1-9.5-18.6-15.1c0,1-0.1-0.4-0.1-8.9V93.9
	c0-6.8,4.1-12.6,9.9-15.3c15.4,8.9,48,15,85.8,15c37.4,0,69.8-6,85.4-14.8C203.6,81.4,207.5,87.1,207.5,93.8z"/>
<path class="st0" d="M194.9,255.8v-96.4"/>
<path class="st0" d="M186,265.8v-23"/>
<line class="st3" x1="84.4" y1="305.5" x2="149.1" y2="305.5"/>
<line class="st3" x1="0.1" y1="314.4" x2="94.1" y2="314.4"/>
<line class="st3" x1="134.9" y1="314.4" x2="229" y2="314.4"/>
<g>
	<path class="st4" d="M70.4,250.4l-0.6,1.4l-0.4,4.5c0.3-0.1,0.7-0.3,1.1-0.4c0.5-0.1,1-0.2,1.5-0.2c1,0,1.8,0.2,2.6,0.5
		c0.8,0.4,1.4,0.9,1.8,1.6c0.5,0.7,0.7,1.6,0.7,2.6c0,0.9-0.2,1.8-0.6,2.5s-1,1.3-1.8,1.7s-1.8,0.6-3,0.6c-0.9,0-1.7-0.1-2.4-0.3
		s-1.2-0.5-1.6-0.8s-0.6-0.6-0.6-0.9s0.1-0.5,0.3-0.7c0.2-0.2,0.3-0.3,0.5-0.4c0.4,0.3,0.8,0.6,1.5,0.9c0.6,0.3,1.4,0.5,2.3,0.5
		c1.1,0,2-0.3,2.6-0.9s0.9-1.4,0.9-2.3c0-1-0.3-1.7-0.9-2.3s-1.4-0.8-2.4-0.8c-0.6,0-1.1,0.1-1.5,0.3c-0.5,0.2-0.9,0.4-1.3,0.6
		c-0.4,0-0.8-0.2-1-0.4c-0.3-0.2-0.4-0.5-0.4-0.9c0-0.1,0-0.2,0-0.4c0-0.2,0-0.3,0-0.4l0.4-4.6c0-0.3,0.1-0.6,0.3-0.8
		c0.2-0.2,0.4-0.3,0.8-0.3L70.4,250.4L70.4,250.4z M69.4,252v-1.6h7c0,0.1,0.1,0.2,0.1,0.3s0.1,0.3,0.1,0.5c0,0.3-0.1,0.5-0.2,0.6
		s-0.3,0.2-0.6,0.2H69.4z"/>
	<path class="st4" d="M85.5,265.3c-1.1,0-2.1-0.3-3-0.8c-0.9-0.6-1.5-1.4-2-2.5s-0.7-2.5-0.7-4.3c0-1.8,0.3-3.3,0.8-4.4
		c0.5-1.1,1.2-1.9,2.1-2.4s1.8-0.8,2.8-0.8s1.9,0.3,2.8,0.8s1.6,1.3,2.1,2.4c0.5,1.1,0.8,2.6,0.8,4.4c0,1.7-0.2,3.1-0.7,4.2
		s-1.1,2-2,2.5C87.6,265,86.6,265.3,85.5,265.3z M85.5,263.7c1.2,0,2.1-0.5,2.8-1.5c0.7-1,1-2.5,1-4.4c0-1.4-0.2-2.6-0.5-3.4
		c-0.3-0.9-0.8-1.5-1.4-1.9s-1.2-0.6-1.9-0.6c-0.7,0-1.3,0.2-1.9,0.6c-0.6,0.4-1,1.1-1.4,1.9s-0.5,2-0.5,3.4c0,1.9,0.3,3.4,1,4.4
		C83.4,263.1,84.3,263.7,85.5,263.7z"/>
	<path class="st4" d="M99.5,265.3c-1.1,0-2.1-0.3-3-0.8c-0.9-0.6-1.5-1.4-2-2.5s-0.7-2.5-0.7-4.3c0-1.8,0.3-3.3,0.8-4.4
		c0.5-1.1,1.2-1.9,2.1-2.4s1.8-0.8,2.8-0.8s1.9,0.3,2.8,0.8s1.6,1.3,2.1,2.4c0.5,1.1,0.8,2.6,0.8,4.4c0,1.7-0.2,3.1-0.7,4.2
		s-1.1,2-2,2.5C101.6,265,100.6,265.3,99.5,265.3z M99.5,263.7c1.2,0,2.1-0.5,2.8-1.5c0.7-1,1-2.5,1-4.4c0-1.4-0.2-2.6-0.5-3.4
		c-0.3-0.9-0.8-1.5-1.4-1.9s-1.2-0.6-1.9-0.6c-0.7,0-1.3,0.2-1.9,0.6c-0.6,0.4-1,1.1-1.4,1.9s-0.5,2-0.5,3.4c0,1.9,0.3,3.4,1,4.4
		C97.4,263.1,98.3,263.7,99.5,263.7z"/>
	<path class="st4" d="M125,258.1v5.2c0,0.3-0.1,0.5-0.3,0.7c-0.2,0.2-0.4,0.4-0.8,0.5c-0.4,0.2-1,0.4-1.7,0.5s-1.4,0.2-2.1,0.2
		c-1.5,0-2.8-0.3-3.9-0.8s-2-1.4-2.7-2.5c-0.6-1.1-1-2.5-1-4.3c0-1.7,0.3-3.1,1-4.3c0.7-1.1,1.5-2,2.7-2.5c1.1-0.6,2.3-0.8,3.6-0.8
		c0.9,0,1.7,0.1,2.4,0.3c0.7,0.2,1.2,0.4,1.6,0.7s0.6,0.6,0.6,0.9c0,0.2-0.1,0.4-0.2,0.6c-0.1,0.2-0.3,0.3-0.5,0.4
		c-0.4-0.3-0.9-0.6-1.5-0.8s-1.4-0.4-2.3-0.4c-1,0-1.9,0.2-2.7,0.7c-0.8,0.4-1.5,1.1-1.9,2c-0.5,0.9-0.7,2-0.7,3.3
		c0,1.4,0.2,2.5,0.7,3.4s1.2,1.5,2,1.9s1.8,0.6,2.9,0.6c0.6,0,1.1,0,1.6-0.1s0.9-0.2,1.2-0.4v-4.4h-3.6c0-0.1-0.1-0.2-0.1-0.3
		s-0.1-0.3-0.1-0.4c0-0.3,0.1-0.5,0.2-0.6s0.3-0.2,0.6-0.2h4c0.3,0,0.5,0.1,0.7,0.3S125,257.8,125,258.1z"/>
	<path class="st4" d="M137.1,261.2c-0.1,0.1-0.3,0.2-0.4,0.2c-0.2,0.1-0.4,0.1-0.6,0.1c-0.3,0-0.5,0-0.7-0.1
		c-0.2-0.1-0.3-0.2-0.4-0.4c-0.8-1.8-1.6-3.4-2.2-4.9c-0.6-1.5-1.1-2.7-1.5-3.7h-0.1c0,1.2-0.1,2.3-0.2,3.4c-0.1,1-0.1,2-0.2,3
		c-0.1,1-0.1,2-0.2,3s-0.1,2.1-0.2,3.3c-0.1,0-0.2,0.1-0.4,0.1c-0.2,0-0.3,0-0.5,0c-0.4,0-0.6-0.1-0.7-0.2c-0.1-0.2-0.2-0.4-0.2-0.6
		s0-0.6,0.1-1.3c0-0.7,0.1-1.5,0.1-2.6s0.1-2.1,0.2-3.2c0.1-1.1,0.2-2.3,0.3-3.4s0.2-2.1,0.3-3c0.1-0.1,0.3-0.2,0.6-0.3
		c0.2-0.1,0.5-0.1,0.8-0.1c0.4,0,0.7,0.1,0.9,0.2c0.2,0.1,0.5,0.4,0.6,0.7c0.4,0.8,0.8,1.7,1.2,2.7s0.8,1.9,1.2,2.9s0.8,1.9,1.2,2.7
		h0.1c0.7-1.7,1.4-3.3,2.1-4.9s1.3-2.9,1.8-4c0.1-0.1,0.3-0.1,0.6-0.2c0.2,0,0.4-0.1,0.6-0.1c0.4,0,0.7,0.1,0.9,0.2
		c0.2,0.1,0.4,0.3,0.4,0.6c0.1,0.3,0.1,0.7,0.2,1.4c0.1,0.7,0.2,1.4,0.2,2.3c0.1,0.9,0.2,1.8,0.2,2.8c0.1,1,0.1,1.9,0.2,2.9
		c0.1,0.9,0.1,1.8,0.2,2.6c0.1,0.8,0.1,1.4,0.1,1.8c-0.1,0.1-0.3,0.2-0.5,0.2c-0.2,0-0.3,0.1-0.6,0.1c-0.2,0-0.5-0.1-0.6-0.2
		c-0.2-0.1-0.3-0.3-0.3-0.7c-0.1-1.6-0.2-3.1-0.3-4.6s-0.2-2.9-0.2-4.2c-0.1-1.3-0.1-2.3-0.2-3.1H141c-0.4,0.9-0.8,2-1.4,3.4
		C138.9,257.4,138,259,137.1,261.2z"/>
	<path class="st4" d="M151.5,263.7c1.1,0,1.9-0.2,2.4-0.7c0.6-0.5,0.8-1.1,0.8-1.9c0-0.7-0.2-1.2-0.6-1.6c-0.4-0.4-1.1-0.8-2-1
		l-2.1-0.6c-0.7-0.2-1.3-0.5-1.8-0.8s-0.9-0.7-1.1-1.2c-0.3-0.5-0.4-1.1-0.4-1.7c0-1.2,0.4-2.2,1.3-2.9c0.9-0.7,2.1-1,3.6-1
		c0.9,0,1.6,0.1,2.3,0.3c0.7,0.2,1.2,0.4,1.6,0.7s0.6,0.6,0.6,0.9c0,0.2-0.1,0.4-0.2,0.6c-0.1,0.2-0.3,0.3-0.4,0.4
		c-0.4-0.3-0.9-0.6-1.6-0.8s-1.4-0.4-2.2-0.4c-0.9,0-1.7,0.2-2.2,0.6c-0.5,0.4-0.8,1-0.8,1.7c0,0.6,0.2,1,0.6,1.4s1,0.7,1.9,0.9
		l1.5,0.4c1.3,0.4,2.3,0.9,3,1.5c0.7,0.7,1.1,1.6,1.1,2.8c0,1.3-0.5,2.3-1.4,3.1c-0.9,0.8-2.2,1.2-3.9,1.2c-1,0-1.8-0.1-2.6-0.3
		c-0.7-0.2-1.3-0.5-1.7-0.8s-0.6-0.7-0.6-1s0.1-0.5,0.3-0.7c0.2-0.2,0.4-0.3,0.6-0.4c0.4,0.4,0.9,0.7,1.6,1S150.5,263.7,151.5,263.7
		z"/>
</g>
<path class="st4" d="M101.2,121v2h-7v-2H101.2z M98.6,123.2l0.8-1.2c1.1,0,2,0.2,2.7,0.6s1.3,0.8,1.6,1.4c0.4,0.6,0.6,1.3,0.6,2
	c0,1.5-0.5,2.5-1.6,3.2c-1,0.7-2.5,1.1-4.5,0.8h-1.3c-0.4,0.3-0.9,0.2-1.3,0.2c-0.4-0.1-0.8-0.1-1.2-0.2c-0.7-0.2-1-0.6-1.2-1.1
	v-12.3c0.2-0.3,0.3-0.5,0.4-0.6s0.3-0.2,0.6-0.3c0.5-0.2,1.1-0.3,1.7-0.3c0.6-0.1,1.3-0.1,2-0.1c1.8,0,3.2,0.3,4.2,1
	c1,0.6,1.5,1.6,1.5,3c0,0.7-0.2,1.3-0.5,1.9s-0.8,1-1.6,1.4c-0.7,0.3-1.7,0.5-2.9,0.5l-0.2-1.2c1.1,0,1.9-0.2,2.4-0.6
	s0.8-1.1,0.8-1.8c0-0.8-0.3-1.4-1-1.8c-0.6-0.4-1.6-0.6-2.8-0.6c-0.5,0-1,0-1.4,0.1c-0.4,0-0.8,0.1-1.2,0.1v11.4
	c0.4,0.1,0.8,0.1,1.3,0.2c0.5,0,1,0.1,1.5,0.1c1.3,0,2.3-0.2,3-0.7c0.7-0.4,1-1.1,1-2.1c0-0.8-0.3-1.5-0.9-2
	C100.7,123.5,99.8,123.2,98.6,123.2z M106.9,116.9c0-0.3,0.2-0.6,0.6-0.8c0.4-0.3,0.9-0.5,1.5-0.7s1.3-0.3,2-0.3
	c1,0,1.9,0.2,2.6,0.5c0.7,0.3,1.3,0.8,1.7,1.4s0.6,1.4,0.6,2.2c0,0.9-0.2,1.7-0.7,2.6c-0.5,0.8-1.3,1.8-2.5,2.9l-3.9,3.3h7.1
	c0.1,0.4,0.1,0.5,0.2,0.6c0,0.1,0.1,0.3,0.1,0.5c0,0.3-0.1,0.5-0.2,0.6c-0.1,0.1-0.3,0.2-0.5,0.3H107c-0.2-0.2-0.3-0.3-0.4-0.5
	c-0.1-0.2-0.1-0.4-0.1-0.6c0-0.3,0-0.5,0.1-0.7s0.2-0.4,0.4-0.6l4.3-4.2c1-0.9,1.7-1.7,2-2.3c0.4-0.6,0.6-1.3,0.6-2
	c0-0.8-0.3-1.4-0.8-1.8c-0.5-0.5-1.3-0.7-2.3-0.7c-0.7,0-1.3,0.1-1.9,0.4c-0.5,0.2-1,0.5-1.4,0.8c-0.2-0.1-0.3-0.2-0.5-0.4
	C107,117.4,106.9,117.2,106.9,116.9z M128.2,121v2h-7v-2H128.2z M125.1,123.2l0.8-1.2c1.1,0,2,0.2,2.7,0.6s1.3,0.8,1.6,1.4
	c0.4,0.6,0.6,1.3,0.6,2c0,1.5-0.5,2.5-1.6,3.2c-1,0.7-2.5,1.1-4.5,0.8h-1.3c-0.4,0.3-0.9,0.2-1.3,0.2c-0.4-0.1-0.8-0.1-1.2-0.2
	c-0.7-0.2-1-0.6-0.7-1.1v-12.3c-0.3-0.3-0.2-0.5-0.1-0.6c0.1-0.1,0.3-0.2,0.6-0.3c0.5-0.2,1.1-0.3,1.7-0.3c0.6-0.1,1.3-0.1,2-0.1
	c1.8,0,3.2,0.3,4.2,1c1,0.6,1.5,1.6,1.5,3c0,0.7-0.2,1.3-0.5,1.9s-0.8,1-1.6,1.4c-0.7,0.3-1.7,0.5-2.9,0.5l-0.2-1.2
	c1.1,0,1.9-0.2,2.4-0.6s0.8-1.1,0.8-1.8c0-0.8-0.3-1.4-1-1.8c-0.6-0.4-1.6-0.6-2.8-0.6c-0.5,0-1,0-1.4,0.1c-0.4,0-0.8,0.1-0.7,0.1
	v11.4c-0.1,0.1,0.3,0.1,0.8,0.2c0.5,0,1,0.1,1.5,0.1c1.3,0,2.3-0.2,3-0.7c0.7-0.4,1-1.1,1-2.1c0-0.8-0.3-1.5-0.9-2
	C127.2,123.5,126.3,123.2,125.1,123.2z"/>
</svg>
